inDegrees=no
num_controls=7
num_derivatives=13
num_iterations=198
num_multipliers=7
num_parameters=0
num_slacks=7
num_states=26
objective=5.939075
objective_accelerations=0.768703
objective_balance=0.017118
objective_effort=0.520362
objective_height=4.562450
objective_ligament=0.070442
solver_duration=1713.085170
status=Solve_Succeeded
success=true
DataType=double
version=3
OpenSimVersion=4.4-2022-07-23-0e9fedc
endheader
time	/jointset/ground_pelvis/pelvis_tilt/value	/jointset/ground_pelvis/pelvis_tx/value	/jointset/ground_pelvis/pelvis_ty/value	/jointset/hip_r/hip_flexion_r/value	/jointset/hip_r/hip_adduction_r/value	/jointset/hip_r/hip_rotation_r/value	/jointset/back/lumbar_extension/value	/jointset/patellofemoral_r/patellar_flexion_r/value	/jointset/knee_r/knee_flexion_r/value	/jointset/knee_r/knee_adduction_r/value	/jointset/knee_r/knee_rotation_r/value	/jointset/ankle_r/ankle_angle_r/value	/jointset/subtalar_r/subtalar_angle_r/value	/jointset/ground_pelvis/pelvis_tilt/speed	/jointset/ground_pelvis/pelvis_tx/speed	/jointset/ground_pelvis/pelvis_ty/speed	/jointset/hip_r/hip_flexion_r/speed	/jointset/hip_r/hip_adduction_r/speed	/jointset/hip_r/hip_rotation_r/speed	/jointset/back/lumbar_extension/speed	/jointset/patellofemoral_r/patellar_flexion_r/speed	/jointset/knee_r/knee_flexion_r/speed	/jointset/knee_r/knee_adduction_r/speed	/jointset/knee_r/knee_rotation_r/speed	/jointset/ankle_r/ankle_angle_r/speed	/jointset/subtalar_r/subtalar_angle_r/speed	/forceset/tau_hip_flexion_r	/forceset/tau_hip_adduction_r	/forceset/tau_hip_rotation_r	/forceset/tau_knee_flexion_r	/forceset/tau_ankle_angle_r	/forceset/tau_subtalar_angle_r	/forceset/tau_lumbar_extension	lambda_cid13_p0	lambda_cid14_p0	lambda_cid14_p1	lambda_cid14_p2	lambda_cid14_p3	lambda_cid14_p4	lambda_cid14_p5	/jointset/ground_pelvis/pelvis_tilt/accel	/jointset/ground_pelvis/pelvis_tx/accel	/jointset/ground_pelvis/pelvis_ty/accel	/jointset/hip_r/hip_flexion_r/accel	/jointset/hip_r/hip_adduction_r/accel	/jointset/hip_r/hip_rotation_r/accel	/jointset/back/lumbar_extension/accel	/jointset/patellofemoral_r/patellar_flexion_r/accel	/jointset/knee_r/knee_flexion_r/accel	/jointset/knee_r/knee_adduction_r/accel	/jointset/knee_r/knee_rotation_r/accel	/jointset/ankle_r/ankle_angle_r/accel	/jointset/subtalar_r/subtalar_angle_r/accel	gamma_cid13_p0	gamma_cid14_p0	gamma_cid14_p1	gamma_cid14_p2	gamma_cid14_p3	gamma_cid14_p4	gamma_cid14_p5
0	0.001476836722379842	0.1271646358253097	0.9345228918372204	0.1934208783645156	-0.2139139976605076	-0.2360951476869607	-0.2903791543005566	0.2311793314021611	0.2311793314021609	0.1021188557260687	0.1592734917085089	0.08934340440958972	0.08149110589916847	0	0	0	0	0	0	0	0	0	0	0	0	0	0.1207021550586646	-0.06632310465521639	0.00127932503320266	-0.2486200240961226	0.1216163935538996	-0.05597979336485785	-0.04028597590886331	-29.42288939287273	-5.461049262745643	-21.33945315520936	-0.6635643076781421	5.072753079842784	-603.5270185989276	61.36432090491338	-2.440998412291079	-2.125994016406948	-1.005939014171419	11.59495077846829	-0.01431381368870654	2.046633140010463	-6.695896128324413	11.44462694288458	11.44462694288477	-2.955139948998133	0.70478652433139	2.998303898921492	0.8707622347071504	3.59097494228809e-08	2.182382793381289e-08	-2.810111177057661e-07	2.388857781729409e-07	9.386341706354397e-09	1.771259993151131e-07	-2.697723601935191e-07
0.01	0.001362003935393087	0.1270598025986878	0.9344739884200373	0.1939852903980352	-0.2139130078203718	-0.2359930937932471	-0.2907160600699946	0.2317405649011024	0.2317405649011019	0.1019704529361764	0.1593053454833319	0.08949076491219825	0.08153598424173653	-0.02287571900951462	-0.02084715922637899	-0.00975384382112802	0.1123500677881207	0.0001844886017449721	0.02033238086722265	-0.06692657130734028	0.1117284703146328	0.1117284703146329	-0.02950867751648495	0.006315052394292343	0.0293569739126913	0.008926312121166315	0.1163261784632913	-0.06835996657544907	0.001501187708168654	-0.2449915527503062	0.116940947992271	-0.05220189671469981	-0.03625132139416806	-29.42987318054114	-6.806820566274917	-19.81068412931251	-1.048545453121739	4.966571860063198	-605.207379630108	64.16823169578677	-2.197235959501659	-2.046152083794906	-0.9560456985584346	10.97518347763795	0.03280641477401704	2.014829350705016	-6.62285024488852	10.95921547277076	10.95921547277067	-2.922972577055667	0.5865561870387893	2.887130346823384	0.8961463658739858	4.694681652667718e-08	4.432312813879627e-09	-3.446058447275472e-07	2.723371528927113e-07	3.168262344572452e-08	2.795889385399225e-08	-3.163887810955005e-07
0.02	0.001021138495466892	0.1267500827381937	0.9343283588381479	0.1956572328491667	-0.213910577850685	-0.235690058332736	-0.2917085940750961	0.2334035347825931	0.2334035347825931	0.1015321151863017	0.1593986881001117	0.08992824239580978	0.08166864183852678	-0.04520653058782857	-0.04097732677442052	-0.01934523294125329	0.2215060835224013	0.0002880259102066729	0.04019631335951915	-0.1311256471326673	0.2203472765099905	0.2203472765099906	-0.05798699199624938	0.01229776839100996	0.05802339620059993	0.01755585084443707	0.1119502018679182	-0.07039682849568198	0.001723050383141673	-0.2413630814044899	0.1122655024306423	-0.04842400006454213	-0.03221666687947267	-29.45021719451345	-8.063103049470008	-18.28239711860451	-1.415000990726651	4.897631490971939	-605.4547956605936	66.68530173186332	-2.33201692605094	-1.982595680739458	-0.9734480739708684	10.95614036770028	-0.0305040723453611	1.952943465025233	-6.150397031921758	10.82269411902955	10.82269411902972	-2.749067341654032	0.638319244816446	2.860193573964954	0.8114075551280371	5.798388363047345e-08	-1.295920230605363e-08	-4.082005717493282e-07	3.057885276124817e-07	5.397890518509464e-08	-1.212082116071286e-07	-3.63005201997482e-07
0.03	0.0004592449766761554	0.1262425651281243	0.9340872523282534	0.1984054810895487	-0.2139076535214463	-0.2351915185792746	-0.2933291113010541	0.2361373752328518	0.2361373752328513	0.1008144137922011	0.1595508073469777	0.09064878428542056	0.08188593707934243	-0.06707458399715419	-0.06041361126279178	-0.02887751441413675	0.3276184716590648	0.0002881015225250161	0.05940654791110457	-0.192541771386476	0.3259037486551187	0.3259037486551196	-0.08538384015121311	0.01806668621695139	0.08595763644075262	0.02585893746600442	0.1067215587493809	-0.06690697786101141	0.0019337505186894	-0.2372522937224568	0.10784074688072	-0.04824295665173849	-0.02774636689662619	-29.48293992031622	-9.452451469944286	-18.39707117381777	-1.453789376401304	5.049367227748347	-605.626824580012	65.51485455302947	-2.099557368041996	-1.907246350527242	-0.9433598347580231	10.36002508015151	0.01395191946583805	1.889362876985181	-6.071816121231372	10.34455238790007	10.34455238790008	-2.709610915890223	0.5373293834742862	2.740942136214474	0.833093158698464	5.8701544279658e-08	-2.781564029851125e-08	-4.031421015813391e-07	2.603878541513224e-07	6.622589720966835e-08	-2.539093059135179e-07	-3.242083012108691e-07
0.04	-0.0003184006401418748	0.1255440643696429	0.9337507746734679	0.2021991006199977	-0.2139049907277953	-0.2345040165949454	-0.2955507089693745	0.2399112661296903	0.2399112661296903	0.09982782044385545	0.1597588460385026	0.09164484915486769	0.08218492997497923	-0.08835695019322382	-0.07917395645681546	-0.03841946191945907	0.4305803415358139	0.0002357187926595713	0.07798875953308922	-0.2513417356051217	0.4283573658260716	0.4283573658260723	-0.1117653828450839	0.02348165732254457	0.1131279921678671	0.0338953818086669	0.101492915630845	-0.06341712722634082	0.002144450654243103	-0.2331415060404235	0.1034159913307978	-0.04806191323893493	-0.02327606691377862	-29.52651695681903	-10.7605241990955	-18.51309569456561	-1.474564762429843	5.226155906337157	-604.5017369271545	64.08338920926218	-2.21487948339974	-1.847407821869946	-0.9753812804586413	10.3260367157174	-0.04099574078211899	1.827338879105076	-5.627165024889141	10.20212312419449	10.20212312419445	-2.54600624943545	0.5675299007467951	2.707416671357321	0.7580790993470607	5.920643366173714e-08	-4.261980865947451e-08	-3.966681015743855e-07	2.133613652637521e-07	7.826568738445245e-08	-3.862708948352736e-07	-2.836503010079964e-07
0.05	-0.001306545158571449	0.1246613869897739	0.9333184930962929	0.2070073288586082	-0.2139035166643125	-0.2336339580834574	-0.2983467360759168	0.2446945314319421	0.2446945314319421	0.09858334887113587	0.1600194792158982	0.0929087969141504	0.08256247803605014	-0.1091762951681233	-0.09724261583674144	-0.04806098262098107	0.5305426513567217	5.811959012903191e-05	0.09590127135654854	-0.3074417089175531	0.5277821461332437	0.5277821461332466	-0.1369707107483613	0.02857678885445696	0.1395407859930589	0.04158387722939177	0.09605358622976651	-0.06168340055920053	0.002371270892322418	-0.2298747628641144	0.0995126696411586	-0.04628908676404966	-0.01873938902377592	-29.57922078192567	-11.80969294012299	-17.88686558365495	-1.620085174194539	5.115132004536603	-603.4861037814642	64.20422658654655	-2.00110410986413	-1.768743693596625	-0.9622351545803608	9.752931631213375	-0.006298253666603366	1.755003619427572	-5.538116966544981	9.735611364955115	9.735611364955457	-2.484103146924118	0.4703200261865758	2.590098771220203	0.769645999909418	5.279364699607696e-08	-5.58086407627634e-08	-3.505392177506238e-07	1.085110209580035e-07	8.451368731826194e-08	-4.978759972002189e-07	-1.872133877540182e-07
